<mxfile host="Electron" agent="Mozilla/5.0 (Windows NT 10.0; Win64; x64) AppleWebKit/537.36 (KHTML, like Gecko) draw.io/27.0.9 Chrome/134.0.6998.205 Electron/35.4.0 Safari/537.36" version="27.0.9">
  <diagram name="Page-1" id="nkkDjGoS0Oh8vo6izv7T">
    <mxGraphModel dx="1389" dy="1980" grid="1" gridSize="10" guides="1" tooltips="1" connect="1" arrows="1" fold="1" page="1" pageScale="1" pageWidth="850" pageHeight="1100" math="0" shadow="0">
      <root>
        <mxCell id="0" />
        <mxCell id="1" parent="0" />
        <mxCell id="FzJpmzHv1ix2bZuG49Yu-7" style="edgeStyle=orthogonalEdgeStyle;rounded=0;orthogonalLoop=1;jettySize=auto;html=1;entryX=0;entryY=0.5;entryDx=0;entryDy=0;" edge="1" parent="1" target="FzJpmzHv1ix2bZuG49Yu-6">
          <mxGeometry relative="1" as="geometry">
            <mxPoint x="470" y="270" as="targetPoint" />
            <mxPoint x="300" y="270" as="sourcePoint" />
            <Array as="points">
              <mxPoint x="390" y="270" />
              <mxPoint x="390" y="228" />
            </Array>
          </mxGeometry>
        </mxCell>
        <mxCell id="FzJpmzHv1ix2bZuG49Yu-1" value="crm_sales_details" style="swimlane;fontStyle=0;childLayout=stackLayout;horizontal=1;startSize=26;fillColor=#dae8fc;horizontalStack=0;resizeParent=1;resizeParentMax=0;resizeLast=0;collapsible=1;marginBottom=0;html=1;rounded=1;strokeColor=#6c8ebf;" vertex="1" parent="1">
          <mxGeometry x="160" y="230" width="140" height="100" as="geometry">
            <mxRectangle x="160" y="240" width="110" height="30" as="alternateBounds" />
          </mxGeometry>
        </mxCell>
        <mxCell id="FzJpmzHv1ix2bZuG49Yu-2" value="cst_id" style="text;strokeColor=none;fillColor=none;align=left;verticalAlign=middle;spacingLeft=4;spacingRight=4;overflow=hidden;rotatable=0;points=[[0,0.5],[1,0.5]];portConstraint=eastwest;whiteSpace=wrap;html=1;perimeterSpacing=0;spacing=4;spacingTop=-1;spacingBottom=0;fontSize=12;horizontal=1;" vertex="1" parent="FzJpmzHv1ix2bZuG49Yu-1">
          <mxGeometry y="26" width="140" height="34" as="geometry" />
        </mxCell>
        <mxCell id="FzJpmzHv1ix2bZuG49Yu-16" value="sls_prd_key" style="text;strokeColor=none;fillColor=none;align=left;verticalAlign=middle;spacingLeft=4;spacingRight=4;overflow=hidden;rotatable=0;points=[[0,0.5],[1,0.5]];portConstraint=eastwest;whiteSpace=wrap;html=1;perimeterSpacing=0;spacing=4;spacingTop=-1;spacingBottom=0;fontSize=12;horizontal=1;" vertex="1" parent="FzJpmzHv1ix2bZuG49Yu-1">
          <mxGeometry y="60" width="140" height="40" as="geometry" />
        </mxCell>
        <mxCell id="FzJpmzHv1ix2bZuG49Yu-5" value="crm_cust_info" style="swimlane;fontStyle=0;childLayout=stackLayout;horizontal=1;startSize=26;fillColor=#dae8fc;horizontalStack=0;resizeParent=1;resizeParentMax=0;resizeLast=0;collapsible=1;marginBottom=0;html=1;rounded=1;strokeColor=#6c8ebf;" vertex="1" parent="1">
          <mxGeometry x="480" y="190" width="140" height="74" as="geometry">
            <mxRectangle x="160" y="240" width="110" height="30" as="alternateBounds" />
          </mxGeometry>
        </mxCell>
        <mxCell id="FzJpmzHv1ix2bZuG49Yu-6" value="cst_id" style="text;strokeColor=none;fillColor=none;align=left;verticalAlign=top;spacingLeft=4;spacingRight=4;overflow=hidden;rotatable=0;points=[[0,0.5],[1,0.5]];portConstraint=eastwest;whiteSpace=wrap;html=1;" vertex="1" parent="FzJpmzHv1ix2bZuG49Yu-5">
          <mxGeometry y="26" width="140" height="24" as="geometry" />
        </mxCell>
        <mxCell id="FzJpmzHv1ix2bZuG49Yu-28" value="cst_key" style="text;strokeColor=none;fillColor=none;align=left;verticalAlign=top;spacingLeft=4;spacingRight=4;overflow=hidden;rotatable=0;points=[[0,0.5],[1,0.5]];portConstraint=eastwest;whiteSpace=wrap;html=1;" vertex="1" parent="FzJpmzHv1ix2bZuG49Yu-5">
          <mxGeometry y="50" width="140" height="24" as="geometry" />
        </mxCell>
        <mxCell id="FzJpmzHv1ix2bZuG49Yu-17" value="crm_prd_info" style="swimlane;fontStyle=0;childLayout=stackLayout;horizontal=1;startSize=26;fillColor=#dae8fc;horizontalStack=0;resizeParent=1;resizeParentMax=0;resizeLast=0;collapsible=1;marginBottom=0;html=1;rounded=1;strokeColor=#6c8ebf;" vertex="1" parent="1">
          <mxGeometry x="480" y="360" width="140" height="50" as="geometry">
            <mxRectangle x="160" y="240" width="110" height="30" as="alternateBounds" />
          </mxGeometry>
        </mxCell>
        <mxCell id="FzJpmzHv1ix2bZuG49Yu-18" value="prd_key" style="text;strokeColor=none;fillColor=none;align=left;verticalAlign=top;spacingLeft=4;spacingRight=4;overflow=hidden;rotatable=0;points=[[0,0.5],[1,0.5]];portConstraint=eastwest;whiteSpace=wrap;html=1;" vertex="1" parent="FzJpmzHv1ix2bZuG49Yu-17">
          <mxGeometry y="26" width="140" height="24" as="geometry" />
        </mxCell>
        <mxCell id="FzJpmzHv1ix2bZuG49Yu-20" style="edgeStyle=orthogonalEdgeStyle;rounded=0;orthogonalLoop=1;jettySize=auto;html=1;exitX=1;exitY=0.5;exitDx=0;exitDy=0;" edge="1" parent="1" source="FzJpmzHv1ix2bZuG49Yu-16" target="FzJpmzHv1ix2bZuG49Yu-18">
          <mxGeometry relative="1" as="geometry">
            <Array as="points">
              <mxPoint x="390" y="310" />
              <mxPoint x="390" y="398" />
            </Array>
          </mxGeometry>
        </mxCell>
        <mxCell id="FzJpmzHv1ix2bZuG49Yu-21" value="Transaction records about Sales and orders" style="text;html=1;align=center;verticalAlign=middle;whiteSpace=wrap;rounded=0;" vertex="1" parent="1">
          <mxGeometry x="160" y="210" width="145" height="10" as="geometry" />
        </mxCell>
        <mxCell id="FzJpmzHv1ix2bZuG49Yu-22" value="Customer Information" style="text;html=1;align=center;verticalAlign=middle;whiteSpace=wrap;rounded=0;" vertex="1" parent="1">
          <mxGeometry x="480" y="160" width="140" height="30" as="geometry" />
        </mxCell>
        <mxCell id="FzJpmzHv1ix2bZuG49Yu-23" value="Current &amp;amp; history product information" style="text;html=1;align=center;verticalAlign=middle;whiteSpace=wrap;rounded=0;" vertex="1" parent="1">
          <mxGeometry x="450" y="330" width="200" height="30" as="geometry" />
        </mxCell>
        <mxCell id="FzJpmzHv1ix2bZuG49Yu-24" value="erp_cust_az12" style="swimlane;fontStyle=0;childLayout=stackLayout;horizontal=1;startSize=26;fillColor=#ffe6cc;horizontalStack=0;resizeParent=1;resizeParentMax=0;resizeLast=0;collapsible=1;marginBottom=0;html=1;rounded=1;strokeColor=#d79b00;" vertex="1" parent="1">
          <mxGeometry x="880" y="150" width="140" height="50" as="geometry">
            <mxRectangle x="160" y="240" width="110" height="30" as="alternateBounds" />
          </mxGeometry>
        </mxCell>
        <mxCell id="FzJpmzHv1ix2bZuG49Yu-25" value="cst_id" style="text;strokeColor=none;fillColor=none;align=left;verticalAlign=top;spacingLeft=4;spacingRight=4;overflow=hidden;rotatable=0;points=[[0,0.5],[1,0.5]];portConstraint=eastwest;whiteSpace=wrap;html=1;" vertex="1" parent="FzJpmzHv1ix2bZuG49Yu-24">
          <mxGeometry y="26" width="140" height="24" as="geometry" />
        </mxCell>
        <mxCell id="FzJpmzHv1ix2bZuG49Yu-26" value="Extra Customer information (Birthday)" style="text;html=1;align=center;verticalAlign=middle;whiteSpace=wrap;rounded=0;" vertex="1" parent="1">
          <mxGeometry x="850" y="120" width="210" height="30" as="geometry" />
        </mxCell>
        <mxCell id="FzJpmzHv1ix2bZuG49Yu-27" style="edgeStyle=orthogonalEdgeStyle;rounded=0;orthogonalLoop=1;jettySize=auto;html=1;entryX=1;entryY=0.5;entryDx=0;entryDy=0;" edge="1" parent="1">
          <mxGeometry relative="1" as="geometry">
            <mxPoint x="880" y="190" as="sourcePoint" />
            <mxPoint x="620" y="250" as="targetPoint" />
            <Array as="points">
              <mxPoint x="880" y="190" />
              <mxPoint x="750" y="190" />
              <mxPoint x="750" y="250" />
            </Array>
          </mxGeometry>
        </mxCell>
        <mxCell id="FzJpmzHv1ix2bZuG49Yu-29" value="erp_loc_a101" style="swimlane;fontStyle=0;childLayout=stackLayout;horizontal=1;startSize=26;fillColor=#ffe6cc;horizontalStack=0;resizeParent=1;resizeParentMax=0;resizeLast=0;collapsible=1;marginBottom=0;html=1;rounded=1;strokeColor=#d79b00;" vertex="1" parent="1">
          <mxGeometry x="880" y="280" width="140" height="50" as="geometry">
            <mxRectangle x="160" y="240" width="110" height="30" as="alternateBounds" />
          </mxGeometry>
        </mxCell>
        <mxCell id="FzJpmzHv1ix2bZuG49Yu-32" style="edgeStyle=orthogonalEdgeStyle;rounded=0;orthogonalLoop=1;jettySize=auto;html=1;curved=0;endArrow=none;startFill=0;" edge="1" parent="FzJpmzHv1ix2bZuG49Yu-29" source="FzJpmzHv1ix2bZuG49Yu-30">
          <mxGeometry relative="1" as="geometry">
            <mxPoint x="-130" y="-30" as="targetPoint" />
          </mxGeometry>
        </mxCell>
        <mxCell id="FzJpmzHv1ix2bZuG49Yu-30" value="cid" style="text;strokeColor=none;fillColor=none;align=left;verticalAlign=top;spacingLeft=4;spacingRight=4;overflow=hidden;rotatable=0;points=[[0,0.5],[1,0.5]];portConstraint=eastwest;whiteSpace=wrap;html=1;" vertex="1" parent="FzJpmzHv1ix2bZuG49Yu-29">
          <mxGeometry y="26" width="140" height="24" as="geometry" />
        </mxCell>
        <mxCell id="FzJpmzHv1ix2bZuG49Yu-31" value="Location of customers (Country)" style="text;html=1;align=center;verticalAlign=middle;whiteSpace=wrap;rounded=0;" vertex="1" parent="1">
          <mxGeometry x="860" y="250" width="210" height="30" as="geometry" />
        </mxCell>
        <mxCell id="FzJpmzHv1ix2bZuG49Yu-35" value="erp_px_cat_g1v2" style="swimlane;fontStyle=0;childLayout=stackLayout;horizontal=1;startSize=26;fillColor=#ffe6cc;horizontalStack=0;resizeParent=1;resizeParentMax=0;resizeLast=0;collapsible=1;marginBottom=0;html=1;rounded=1;strokeColor=#d79b00;" vertex="1" parent="1">
          <mxGeometry x="880" y="410" width="140" height="50" as="geometry">
            <mxRectangle x="160" y="240" width="110" height="30" as="alternateBounds" />
          </mxGeometry>
        </mxCell>
        <mxCell id="FzJpmzHv1ix2bZuG49Yu-37" value="id" style="text;strokeColor=none;fillColor=none;align=left;verticalAlign=top;spacingLeft=4;spacingRight=4;overflow=hidden;rotatable=0;points=[[0,0.5],[1,0.5]];portConstraint=eastwest;whiteSpace=wrap;html=1;" vertex="1" parent="FzJpmzHv1ix2bZuG49Yu-35">
          <mxGeometry y="26" width="140" height="24" as="geometry" />
        </mxCell>
        <mxCell id="FzJpmzHv1ix2bZuG49Yu-38" style="edgeStyle=orthogonalEdgeStyle;rounded=0;orthogonalLoop=1;jettySize=auto;html=1;entryX=1;entryY=0.5;entryDx=0;entryDy=0;" edge="1" parent="1" source="FzJpmzHv1ix2bZuG49Yu-37" target="FzJpmzHv1ix2bZuG49Yu-18">
          <mxGeometry relative="1" as="geometry">
            <Array as="points">
              <mxPoint x="750" y="448" />
              <mxPoint x="750" y="398" />
            </Array>
          </mxGeometry>
        </mxCell>
        <mxCell id="FzJpmzHv1ix2bZuG49Yu-39" value="Product Categories" style="text;html=1;align=center;verticalAlign=middle;whiteSpace=wrap;rounded=0;" vertex="1" parent="1">
          <mxGeometry x="850" y="380" width="210" height="30" as="geometry" />
        </mxCell>
        <mxCell id="FzJpmzHv1ix2bZuG49Yu-40" value="" style="rounded=0;whiteSpace=wrap;html=1;fillColor=none;dashed=1;" vertex="1" parent="1">
          <mxGeometry x="120" y="80" width="540" height="440" as="geometry" />
        </mxCell>
        <mxCell id="FzJpmzHv1ix2bZuG49Yu-41" value="" style="rounded=0;whiteSpace=wrap;html=1;fillColor=none;dashed=1;" vertex="1" parent="1">
          <mxGeometry x="720" y="80" width="480" height="440" as="geometry" />
        </mxCell>
        <mxCell id="FzJpmzHv1ix2bZuG49Yu-42" value="&lt;b&gt;CRM&lt;/b&gt;" style="rounded=0;whiteSpace=wrap;html=1;fontSize=18;strokeColor=none;" vertex="1" parent="1">
          <mxGeometry x="345" y="50" width="90" height="50" as="geometry" />
        </mxCell>
        <mxCell id="FzJpmzHv1ix2bZuG49Yu-43" value="&lt;b&gt;ERP&lt;/b&gt;" style="rounded=0;whiteSpace=wrap;html=1;fontSize=18;strokeColor=none;" vertex="1" parent="1">
          <mxGeometry x="905" y="50" width="90" height="50" as="geometry" />
        </mxCell>
        <mxCell id="FzJpmzHv1ix2bZuG49Yu-44" value="&lt;span&gt;Data Integration Diagram - Silver Layer&lt;/span&gt;" style="text;html=1;align=center;verticalAlign=middle;whiteSpace=wrap;rounded=0;fontSize=25;fontStyle=1" vertex="1" parent="1">
          <mxGeometry x="380" y="-170" width="480" height="30" as="geometry" />
        </mxCell>
        <mxCell id="FzJpmzHv1ix2bZuG49Yu-45" value="&lt;b&gt;&lt;font style=&quot;font-size: 18px;&quot;&gt;Integration Model&lt;/font&gt;&lt;/b&gt;" style="text;html=1;align=center;verticalAlign=middle;whiteSpace=wrap;rounded=0;" vertex="1" parent="1">
          <mxGeometry x="80" y="-90" width="250" height="70" as="geometry" />
        </mxCell>
        <mxCell id="FzJpmzHv1ix2bZuG49Yu-46" value="(How tables are related)" style="text;html=1;align=center;verticalAlign=middle;whiteSpace=wrap;rounded=0;" vertex="1" parent="1">
          <mxGeometry x="220" y="-60" width="260" height="10" as="geometry" />
        </mxCell>
        <mxCell id="FzJpmzHv1ix2bZuG49Yu-47" value="Customer" style="rounded=0;whiteSpace=wrap;html=1;fillColor=#f8cecc;strokeColor=#b85450;" vertex="1" parent="1">
          <mxGeometry x="480" y="264" width="140" height="16" as="geometry" />
        </mxCell>
        <mxCell id="FzJpmzHv1ix2bZuG49Yu-48" value="Customer" style="rounded=0;whiteSpace=wrap;html=1;fillColor=#f8cecc;strokeColor=#b85450;" vertex="1" parent="1">
          <mxGeometry x="880" y="200" width="140" height="16" as="geometry" />
        </mxCell>
        <mxCell id="FzJpmzHv1ix2bZuG49Yu-49" value="Customer" style="rounded=0;whiteSpace=wrap;html=1;fillColor=#f8cecc;strokeColor=#b85450;" vertex="1" parent="1">
          <mxGeometry x="880" y="330" width="140" height="16" as="geometry" />
        </mxCell>
        <mxCell id="FzJpmzHv1ix2bZuG49Yu-50" value="Product" style="rounded=0;whiteSpace=wrap;html=1;fillColor=#d5e8d4;strokeColor=#82b366;" vertex="1" parent="1">
          <mxGeometry x="880" y="460" width="140" height="16" as="geometry" />
        </mxCell>
        <mxCell id="FzJpmzHv1ix2bZuG49Yu-51" value="Product" style="rounded=0;whiteSpace=wrap;html=1;fillColor=#d5e8d4;strokeColor=#82b366;" vertex="1" parent="1">
          <mxGeometry x="480" y="410" width="140" height="16" as="geometry" />
        </mxCell>
        <mxCell id="FzJpmzHv1ix2bZuG49Yu-52" value="Sales" style="rounded=0;whiteSpace=wrap;html=1;fillColor=#e1d5e7;strokeColor=#9673a6;" vertex="1" parent="1">
          <mxGeometry x="160" y="330" width="140" height="16" as="geometry" />
        </mxCell>
      </root>
    </mxGraphModel>
  </diagram>
</mxfile>
